<svg xmlns="http://www.w3.org/2000/svg" xmlns:xlink="http://www.w3.org/1999/xlink" width="481" zoomAndPan="magnify" viewBox="0 0 360.75 222.749995" height="297" preserveAspectRatio="xMidYMid meet" version="1.0"><defs><g/><clipPath id="6d1467b124"><path d="M 75.648438 79.488281 L 129 79.488281 L 129 110 L 75.648438 110 Z M 75.648438 79.488281 " clip-rule="nonzero"/></clipPath><clipPath id="7841fe8c49"><path d="M 75.757812 109.585938 L 128.480469 109.585938 L 128.480469 139.921875 L 75.757812 139.921875 Z M 75.757812 109.585938 " clip-rule="nonzero"/></clipPath><clipPath id="7fa3d23a56"><path d="M 110.839844 79.488281 L 146.042969 79.488281 L 146.042969 109.785156 L 110.839844 109.785156 Z M 110.839844 79.488281 " clip-rule="nonzero"/></clipPath><clipPath id="0a0e131d9f"><path d="M 110.839844 109.585938 L 146.042969 109.585938 L 146.042969 139.921875 L 110.839844 139.921875 Z M 110.839844 109.585938 " clip-rule="nonzero"/></clipPath></defs><g clip-path="url(#6d1467b124)"><path fill="#3f7e44" d="M 128.480469 79.507812 L 128.480469 79.488281 L 93.316406 79.488281 L 75.757812 109.707031 L 110.898438 109.707031 L 128.480469 79.507812 " fill-opacity="1" fill-rule="nonzero"/></g><g clip-path="url(#7841fe8c49)"><path fill="#4c9f38" d="M 75.757812 109.707031 L 93.316406 139.921875 L 128.480469 139.921875 L 128.480469 139.902344 L 110.898438 109.707031 L 75.757812 109.707031 " fill-opacity="1" fill-rule="nonzero"/></g><g clip-path="url(#7fa3d23a56)"><path fill="#d2df64" d="M 146.042969 109.707031 L 128.480469 79.507812 L 110.898438 109.707031 Z M 146.042969 109.707031 " fill-opacity="1" fill-rule="nonzero"/></g><g clip-path="url(#0a0e131d9f)"><path fill="#99b951" d="M 110.898438 109.707031 L 128.480469 139.902344 L 146.042969 109.707031 Z M 110.898438 109.707031 " fill-opacity="1" fill-rule="nonzero"/></g><g fill="#192954" fill-opacity="1"><g transform="translate(162.69988, 104.523998)"><g><path d="M 12.511719 -15.097656 L 17.933594 -15.097656 C 17.933594 -20.171875 13.679688 -22.375 9.738281 -22.375 C 5.042969 -22.375 1.070312 -19.476562 1.324219 -14.625 L 1.324219 -14.65625 C 1.734375 -9.582031 5.957031 -8.792969 9.519531 -8.445312 C 10.335938 -8.351562 12.859375 -8.289062 12.859375 -6.714844 C 12.859375 -5.453125 11.441406 -4.949219 9.675781 -4.949219 C 8.445312 -4.949219 6.617188 -5.359375 6.617188 -7.53125 L 1.167969 -7.53125 C 1.167969 -1.921875 6.050781 0.285156 9.644531 0.285156 C 13.835938 0.285156 18.3125 -2.363281 18.3125 -6.964844 C 18.3125 -7.4375 18.246094 -8.003906 18.152344 -8.507812 C 17.207031 -12.480469 13.269531 -13.300781 10.148438 -13.710938 C 9.421875 -13.773438 6.808594 -13.804688 6.808594 -15.441406 C 6.808594 -16.640625 7.972656 -17.367188 9.644531 -17.367188 C 11.3125 -17.367188 12.511719 -16.578125 12.511719 -15.097656 Z M 12.511719 -15.097656 "/></g></g></g><g fill="#192954" fill-opacity="1"><g transform="translate(183.087057, 104.523998)"><g><path d="M 16.796875 -16.261719 L 16.796875 -17.050781 L 11.660156 -17.050781 L 9.550781 -11.597656 L 8.289062 -7.28125 L 7.089844 -11.597656 L 4.980469 -17.050781 L -0.1875 -17.050781 L -0.1875 -16.261719 L 5.484375 -1.386719 L 3.277344 4.222656 L 3.277344 4.980469 L 8.414062 4.980469 C 11.1875 -2.113281 13.992188 -9.171875 16.796875 -16.261719 Z M 16.796875 -16.261719 "/></g></g></g><g fill="#192954" fill-opacity="1"><g transform="translate(201.867222, 104.523998)"><g><path d="M 5.734375 -15.347656 L 5.734375 -17.050781 L 0.726562 -17.050781 L 0.726562 0 L 5.988281 0 L 5.988281 -9.265625 C 5.988281 -11.441406 7.753906 -12.699219 9.234375 -12.699219 C 10.589844 -12.699219 11.882812 -11.660156 11.882812 -9.359375 L 11.882812 0 L 16.925781 0 L 16.925781 -9.390625 C 16.957031 -13.648438 15.632812 -17.238281 10.777344 -17.300781 C 8.949219 -17.300781 6.933594 -16.859375 5.734375 -15.347656 Z M 5.734375 -15.347656 "/></g></g></g><g fill="#192954" fill-opacity="1"><g transform="translate(162.69988, 139.758879)"><g><path d="M 6.460938 -11 C 6.460938 -15.191406 9.488281 -17.269531 12.511719 -17.269531 C 15.035156 -17.269531 17.585938 -15.820312 18.3125 -12.890625 L 23.761719 -12.890625 C 23.070312 -18.5625 18.183594 -22.410156 12.511719 -22.410156 C 6.207031 -22.410156 1.101562 -17.492188 1.101562 -11 C 1.101562 -4.507812 6.207031 0.316406 12.511719 0.316406 C 18.246094 0.316406 22.976562 -3.5 23.796875 -9.265625 L 18.34375 -9.265625 C 17.648438 -6.273438 15.097656 -4.757812 12.511719 -4.757812 C 9.488281 -4.757812 6.460938 -6.839844 6.460938 -11 Z M 6.460938 -11 "/></g></g></g><g fill="#192954" fill-opacity="1"><g transform="translate(188.160164, 139.758879)"><g><path d="M 8.699219 -17.335938 C 3.152344 -17.335938 0.441406 -13.425781 0.441406 -8.761719 C 0.441406 -4.066406 3.246094 0.21875 8.636719 0.21875 C 10.273438 0.21875 11.945312 -0.253906 13.109375 -1.703125 L 13.109375 0 L 18.058594 0 L 18.058594 -17.050781 L 13.109375 -17.050781 L 13.109375 -15.285156 C 12.007812 -16.703125 10.367188 -17.335938 8.699219 -17.335938 Z M 9.234375 -4.539062 C 6.714844 -4.539062 5.421875 -6.585938 5.421875 -8.636719 C 5.421875 -10.714844 6.679688 -12.765625 9.234375 -12.765625 C 11.378906 -12.765625 13.109375 -10.90625 13.109375 -8.636719 C 13.109375 -6.367188 11.378906 -4.539062 9.234375 -4.539062 Z M 9.234375 -4.539062 "/></g></g></g><g fill="#192954" fill-opacity="1"><g transform="translate(209.083016, 139.758879)"><g><path d="M 5.609375 -15.914062 L 5.421875 -17.050781 L 0.945312 -17.050781 L 0.945312 0 L 5.894531 0 L 5.894531 -9.453125 C 5.894531 -11.753906 7.722656 -12.699219 9.519531 -12.734375 C 10.085938 -12.734375 10.683594 -12.636719 11.1875 -12.480469 L 11.25 -17.144531 C 10.589844 -17.300781 9.925781 -17.398438 9.328125 -17.398438 C 7.941406 -17.398438 6.714844 -16.957031 5.609375 -15.914062 Z M 5.609375 -15.914062 "/></g></g></g><g fill="#192954" fill-opacity="1"><g transform="translate(222.664049, 139.758879)"><g><path d="M 10.273438 -17.335938 C 8.605469 -17.335938 6.964844 -16.796875 5.832031 -15.507812 L 5.832031 -22.441406 L 0.914062 -22.441406 L 0.914062 0 L 5.832031 0 L 5.832031 -1.703125 C 6.996094 -0.253906 8.699219 0.21875 10.335938 0.21875 C 15.726562 0.21875 18.53125 -4.066406 18.53125 -8.761719 C 18.53125 -13.425781 15.820312 -17.335938 10.273438 -17.335938 Z M 9.738281 -4.539062 C 7.59375 -4.539062 5.832031 -6.367188 5.832031 -8.636719 C 5.832031 -10.90625 7.59375 -12.765625 9.738281 -12.765625 C 12.292969 -12.765625 13.550781 -10.714844 13.550781 -8.636719 C 13.550781 -6.585938 12.261719 -4.539062 9.738281 -4.539062 Z M 9.738281 -4.539062 "/></g></g></g><g fill="#192954" fill-opacity="1"><g transform="translate(243.52388, 139.758879)"><g><path d="M 18.3125 -8.507812 C 18.3125 -14.59375 13.773438 -17.617188 9.234375 -17.617188 C 4.664062 -17.617188 0.125 -14.59375 0.125 -8.507812 C 0.125 -2.457031 4.695312 0.566406 9.234375 0.566406 C 13.773438 0.566406 18.3125 -2.457031 18.3125 -8.507812 Z M 5.105469 -8.507812 C 5.105469 -11.410156 7.152344 -12.859375 9.234375 -12.859375 C 11.503906 -12.859375 13.332031 -11.410156 13.332031 -8.507812 C 13.332031 -5.640625 11.28125 -4.222656 9.234375 -4.222656 C 7.152344 -4.222656 5.105469 -5.640625 5.105469 -8.507812 Z M 5.105469 -8.507812 "/></g></g></g><g fill="#192954" fill-opacity="1"><g transform="translate(264.131631, 139.758879)"><g><path d="M 5.734375 -15.347656 L 5.734375 -17.050781 L 0.726562 -17.050781 L 0.726562 0 L 5.988281 0 L 5.988281 -9.265625 C 5.988281 -11.441406 7.753906 -12.699219 9.234375 -12.699219 C 10.589844 -12.699219 11.882812 -11.660156 11.882812 -9.359375 L 11.882812 0 L 16.925781 0 L 16.925781 -9.390625 C 16.957031 -13.648438 15.632812 -17.238281 10.777344 -17.300781 C 8.949219 -17.300781 6.933594 -16.859375 5.734375 -15.347656 Z M 5.734375 -15.347656 "/></g></g></g></svg>